<?xml version="1.0" encoding="UTF-8"?>
<svg xmlns="http://www.w3.org/2000/svg" xmlns:xlink="http://www.w3.org/1999/xlink" width="386.25pt" height="386.22pt" viewBox="0 0 386.25 386.22" version="1.1">
<defs>
<clipPath id="clip1">
  <path d="M 0 0 L 386.25 0 L 386.25 386.21875 L 0 386.21875 Z M 0 0 "/>
</clipPath>
</defs>
<g id="surface1">
<g clip-path="url(#clip1)" clip-rule="nonzero">
<path style=" stroke:none;fill-rule:nonzero;fill:rgb(93.299866%,16.499329%,14.099121%);fill-opacity:1;" d="M 386.246094 193.113281 C 386.246094 299.757813 299.785156 386.21875 193.109375 386.21875 C 86.460938 386.21875 0 299.757813 0 193.113281 C 0 86.457031 86.460938 0.00390625 193.109375 0.00390625 C 299.785156 0.00390625 386.246094 86.457031 386.246094 193.113281 "/>
</g>
<path style=" stroke:none;fill-rule:nonzero;fill:rgb(100%,100%,100%);fill-opacity:1;" d="M 147.925781 284.191406 L 147.925781 273.574219 L 115.351563 273.574219 L 115.351563 273.628906 L 115.179688 273.628906 L 115.179688 315.8125 L 126.746094 315.8125 L 126.746094 300.28125 L 142.75 300.28125 L 142.75 291.023438 L 126.746094 291.023438 L 126.746094 284.191406 L 147.925781 284.191406 "/>
<path style=" stroke:none;fill-rule:nonzero;fill:rgb(100%,100%,100%);fill-opacity:1;" d="M 224.496094 302.03125 C 224.496094 304.609375 222.304688 306.695313 219.597656 306.695313 L 212.714844 306.695313 C 210.011719 306.695313 207.824219 304.609375 207.824219 302.03125 L 207.824219 287.761719 C 207.824219 285.179688 210.011719 283.09375 212.714844 283.09375 L 219.597656 283.09375 C 222.304688 283.09375 224.496094 285.179688 224.496094 287.761719 Z M 222.304688 273.199219 L 210.082031 273.199219 C 202.226563 273.199219 195.859375 279.273438 195.859375 286.769531 L 195.859375 302.597656 C 195.859375 310.089844 202.226563 316.167969 210.082031 316.167969 L 222.304688 316.167969 C 230.164063 316.167969 236.535156 310.089844 236.535156 302.597656 L 236.535156 286.769531 C 236.535156 279.273438 230.164063 273.199219 222.304688 273.199219 "/>
<path style=" stroke:none;fill-rule:nonzero;fill:rgb(100%,100%,100%);fill-opacity:1;" d="M 179.289063 302.03125 C 179.289063 304.609375 177.097656 306.695313 174.390625 306.695313 L 167.507813 306.695313 C 164.804688 306.695313 162.617188 304.609375 162.617188 302.03125 L 162.617188 287.761719 C 162.617188 285.179688 164.804688 283.09375 167.507813 283.09375 L 174.390625 283.09375 C 177.097656 283.09375 179.289063 285.179688 179.289063 287.761719 Z M 177.097656 273.199219 L 164.875 273.199219 C 157.019531 273.199219 150.652344 279.273438 150.652344 286.769531 L 150.652344 302.597656 C 150.652344 310.089844 157.019531 316.167969 164.875 316.167969 L 177.097656 316.167969 C 184.957031 316.167969 191.328125 310.089844 191.328125 302.597656 L 191.328125 286.769531 C 191.328125 279.273438 184.957031 273.199219 177.097656 273.199219 "/>
<path style=" stroke:none;fill-rule:nonzero;fill:rgb(100%,100%,100%);fill-opacity:1;" d="M 193.109375 360.640625 C 156.320313 360.640625 122.273438 348.710938 94.605469 328.53125 C 89.566406 313.125 78.933594 274.164063 89.691406 246.636719 C 103.378906 211.617188 121.886719 156.890625 144.425781 117.851563 C 182.859375 48.230469 230.644531 162.929688 131.960938 163.332031 C 131.960938 163.332031 130.265625 163.304688 128.710938 164.023438 C 115.699219 172.738281 127.773438 187.527344 130.742188 191.90625 C 133.710938 196.28125 138.640625 200.203125 129.132813 219.273438 C 102.496094 278.667969 162.460938 253.066406 172.25 240.949219 L 174.148438 238.945313 C 195.933594 283.855469 230.601563 240.171875 234.980469 237.785156 C 254.296875 286.078125 280.859375 245.027344 282.46875 243.015625 C 301.785156 288.09375 344.851563 228.125 333.984375 224.503906 C 326.738281 232.554688 323.519531 243.421875 308.15625 241.398438 C 299.136719 239.941406 305.65625 217.0625 307.019531 212.429688 C 308.699219 206.722656 336.132813 143.625 345.191406 122.847656 C 355.113281 144.226563 360.664063 168.03125 360.664063 193.113281 C 360.664063 285.488281 285.496094 360.640625 193.109375 360.640625 Z M 41.707031 263.253906 C 25.296875 233.558594 25.820313 200.355469 25.820313 200.355469 C 25.820313 200.355469 101.261719 122.078125 107.804688 128.316406 C 100.757813 185.867188 43.929688 259.441406 41.707031 263.253906 Z M 222.792969 192.429688 C 226.730469 199.753906 209.574219 217.316406 205.785156 214.382813 C 201.988281 211.441406 217.875 185.46875 222.792969 192.429688 Z M 280.46875 219.066406 C 275.53125 228.5 268.96875 234.804688 265.820313 233.164063 C 262.660156 231.507813 264.109375 222.523438 269.035156 213.085938 C 273.980469 203.65625 280.535156 197.351563 283.6875 198.996094 C 286.84375 200.648438 285.402344 209.632813 280.46875 219.066406 Z M 193.109375 25.585938 C 238.480469 25.585938 279.691406 43.71875 309.890625 73.105469 C 313.371094 90.46875 317.941406 133.230469 294.949219 186.273438 C 269.992188 144.816406 237.792969 217.660156 237.792969 217.660156 C 237.792969 217.660156 209.625 257.507813 199.964844 229.332031 C 276.429688 229.9375 228.136719 92.902344 177.027344 221.28125 C 162.4375 238.691406 153.179688 224.707031 157.707031 219.273438 C 162.238281 213.839844 173.804688 196.332031 146.035156 181.039063 C 269.59375 174.597656 265.5625 -0.367188 124.707031 90.890625 C 85.394531 118.105469 58.863281 135.023438 34.441406 139.3125 C 56.902344 73.246094 119.542969 25.585938 193.109375 25.585938 Z M 193.109375 15.925781 C 95.40625 15.925781 15.921875 95.410156 15.921875 193.113281 C 15.921875 290.8125 95.40625 370.300781 193.109375 370.300781 C 290.824219 370.300781 370.320313 290.8125 370.320313 193.113281 C 370.320313 95.410156 290.824219 15.925781 193.109375 15.925781 "/>
<path style=" stroke:none;fill-rule:nonzero;fill:rgb(100%,100%,100%);fill-opacity:1;" d="M 270.425781 301.183594 C 270.425781 303.992188 268.035156 306.269531 265.089844 306.269531 L 255.746094 306.269531 C 252.800781 306.269531 250.40625 306.371094 250.40625 306.371094 L 250.40625 283.363281 C 250.40625 283.363281 252.800781 283.164063 255.746094 283.164063 L 265.089844 283.164063 C 268.035156 283.164063 270.425781 285.4375 270.425781 288.253906 Z M 269.539063 273.519531 L 242.257813 273.519531 L 242.257813 273.628906 L 242.214844 273.628906 L 242.214844 315.8125 L 269.539063 315.8125 C 276.667969 315.8125 282.441406 310.25 282.441406 303.390625 L 282.441406 285.933594 C 282.441406 279.082031 276.667969 273.519531 269.539063 273.519531 "/>
</g>
</svg>
